<svg xmlns="http://www.w3.org/2000/svg" viewBox="0 0 1280 1024"><style type="text/css">  
	.st0{fill:#F9ECE1;}
</style><path class="st0" d="M1102.3 924C992.5 977 851 953.5 736 933.8c-127.9-21.9-252.8-55.2-381.4-69.6 -105.9-12.1-235.4-34.8-305-125.6 -65.8-85.5-53.7-207.4-34.1-307.3C35.2 330.7 90.5 211.1 182 155.9c82.5-49.2 195.2-77.2 289.8-85.5 53-4.5 106.7-2.3 159.7 0 77.9 3 157.4 3.8 234.6 21.2 107.5 25 227.8 73.4 315.6 142.3 92.3 72.7 91.6 234.6 96.1 340.6 3 64.3 6.8 127.9-18.9 189.2C1228.6 834.7 1171.1 891.4 1102.3 924z"/></svg>