<?xml version="1.0" encoding="utf-8"?>
<!-- Generator: Adobe Illustrator 23.0.0, SVG Export Plug-In . SVG Version: 6.00 Build 0)  -->
<svg version="1.1" xmlns="http://www.w3.org/2000/svg" xmlns:xlink="http://www.w3.org/1999/xlink" x="0px" y="0px"
	 viewBox="0 0 306.9 254.5" style="enable-background:new 0 0 306.9 254.5;" xml:space="preserve">
<style type="text/css">
	.st0{display:none;}
	.st1{display:inline;}
	.st2{fill:#473E31;}
	.st3{display:inline;fill:none;stroke:#473E31;stroke-width:5;stroke-linecap:round;stroke-linejoin:round;stroke-miterlimit:10;}
	.st4{fill:none;stroke:#FAD390;stroke-width:3;stroke-linecap:round;stroke-linejoin:round;stroke-miterlimit:10;}
	.st5{display:inline;fill:none;stroke:#FAD390;stroke-width:3;stroke-linecap:round;stroke-linejoin:round;stroke-miterlimit:10;}
	.st6{fill:#37374F;}
	.st7{fill:none;stroke:#37374F;stroke-width:5;stroke-linecap:round;stroke-linejoin:round;stroke-miterlimit:10;}
	.st8{fill:none;stroke:#6687EB;stroke-width:3;stroke-linecap:round;stroke-linejoin:round;stroke-miterlimit:10;}
	.st9{fill:none;stroke:#8AB8F0;stroke-width:3;stroke-linecap:round;stroke-linejoin:round;stroke-miterlimit:10;}
	.st10{fill:#6687EB;}
	.st11{fill:none;stroke:#B0C3EA;stroke-width:3;stroke-linecap:round;stroke-linejoin:round;stroke-miterlimit:10;}
	.st12{fill:#FEFEFE;stroke:#6687EB;stroke-width:2;stroke-miterlimit:10;}
</style>
<g id="Layer_1">
	<text transform="matrix(1 0 0 1 324.2541 -752.9102)" style="fill:#0733B5; font-family:'MyriadPro-Regular'; font-size:102px;">Type the word here</text>
</g>
<g id="book" class="st0">
	<g id="face" class="st1">
		<circle class="st2" cx="168.4" cy="-374.8" r="6.1"/>
		<circle class="st2" cx="237.7" cy="-379.5" r="6.1"/>
		<path class="st2" d="M193.4-342.5c0,0,10,3,27,0c0,0,1,11-12,14S193.4-342.5,193.4-342.5z"/>
	</g>
	<path id="leg-right" class="st3" d="M228.9-271c0,0-4.4-12.1-3.3-24.1"/>
	<path id="leg-left" class="st3" d="M164.9-269c0,0,3-9,0.3-24.1"/>
	<path id="arm-right_1_" class="st3" d="M310.7-382.3c0,0-8.8,13.3-23.8,11.3"/>
	<g id="hand-right" class="st1">
		<path class="st2" d="M317.3-393c-2.8,3-5.3,4.8-4,6c1.3,1.2,4.6-0.3,7.4-3.3c2.8-3,4-6.5,2.7-7.7
			C322.1-399.2,320.1-396.1,317.3-393z"/>
		<path class="st2" d="M316.6-393.5c-0.7,4.1-1.3,7.3-2.9,7c-1.6-0.3-1.8-4-1.1-8s1.4-7.2,3.1-7
			C317.3-401.2,317.2-397.6,316.6-393.5z"/>
		<path class="st2" d="M307.6-387.5c-1.4,3,0,6,2.4,7.7c1.6,1.3,5.2,0.3,6.6-2.7s1.6-6.8-1.4-8.2S309-390.5,307.6-387.5z"/>
	</g>
	<g id="body" class="st1">
		<path id="body_1_" class="st4" d="M89.9-467c-0.8,10.9-3,129,13,160c12,22,164,10,175,2c10-33,9-109,4-149"/>
		<path id="face_divider" class="st4" d="M110.9-436c0,0-8,115,12.8,138.5"/>
		<path id="hair" class="st4" d="M281.9-453.4c0.2-0.9,0.3-1.7,0.4-2.6c1.1-6.7,1.4-13.3,0.8-20c-0.1-0.5-0.1-1-0.2-1.5
			c0-0.1,0-0.2,0-0.3c-0.1-0.5-0.1-0.9-0.2-1.4c0-0.1,0-0.3-0.1-0.4c-0.1-0.5-0.2-0.9-0.2-1.4c0-0.1-0.1-0.3-0.1-0.4
			c-0.1-0.5-0.2-0.9-0.3-1.4c0-0.1-0.1-0.2-0.1-0.4c-0.1-0.5-0.2-1-0.3-1.5c0,0,0-0.1,0-0.1c-0.4-1.7-0.9-3.5-1.5-5.3c0,0,0,0,0-0.1
			c-0.2-0.5-0.3-1-0.5-1.5c-0.1-0.2-0.1-0.3-0.2-0.5c-0.2-0.5-0.3-0.9-0.5-1.4c-0.1-0.2-0.1-0.4-0.2-0.6c-0.2-0.4-0.3-0.9-0.5-1.3
			c-0.1-0.2-0.2-0.4-0.2-0.6c-0.2-0.5-0.4-0.9-0.6-1.4c-0.1-0.2-0.2-0.4-0.3-0.6c-0.2-0.5-0.4-0.9-0.6-1.4c-0.1-0.2-0.1-0.3-0.2-0.5
			c-0.8-1.8-1.8-3.6-2.8-5.4c0,0,0,0,0,0c-2.5-4.6-5.5-9.3-9.2-14.3c0,0-133,6-160,26c-9,6.7-13.7,15.6-14.5,24.5c0,0,0,0,0,0
			c-0.1,0.7-0.1,1.3-0.1,2c0,0,0,0,0,0.1c0,0.7,0,1.3,0,2c0.6,14.1,10.7,27.4,28.1,30.9c20,4,140,5,164-19
			C281.9-453.1,281.9-453.3,281.9-453.4z"/>
		<path class="st4" d="M200.9-483.7c0,0,30-9.3,59.5-9.4"/>
		<path class="st4" d="M208.9-474.7c0,0,30-9.3,59.5-9.4"/>
		<path class="st4" d="M208.4-461.7c0,0,34.5-7.3,60.5-7.3"/>
	</g>
	<path id="arm-left" class="st3" d="M99.9-371c0,0-12.5-1.3-25.2-15.7"/>
	<g id="hand-left" class="st1">
		<path class="st2" d="M68.7-396c2.8,3,5.3,4.8,4,6s-4.6-0.3-7.4-3.3c-2.8-3-4-6.5-2.7-7.7C63.8-402.2,65.9-399.1,68.7-396z"/>
		<path class="st2" d="M73.4-397.9c0.2,4.1,0.3,7.4-1.3,7.5s-2.6-3.5-2.8-7.6c-0.2-4.1-0.2-7.4,1.5-7.5
			C72.4-405.6,73.2-402.1,73.4-397.9z"/>
		<path class="st2" d="M78.4-391.5c1.4,3,0,6-2.4,7.7c-1.6,1.3-5.2,0.3-6.6-2.7s-1.6-6.8,1.4-8.2S76.9-394.5,78.4-391.5z"/>
	</g>
	<path class="st5" d="M368.9-328"/>
</g>
<g id="book_blue">
	<g id="face_1_">
		<circle class="st6" cx="493.4" cy="-374.8" r="6.1"/>
		<circle class="st6" cx="562.7" cy="-379.5" r="6.1"/>
		<path class="st6" d="M518.4-342.5c0,0,10,3,27,0c0,0,1,11-12,14S518.4-342.5,518.4-342.5z"/>
	</g>
	<path id="leg-right_1_" class="st7" d="M553.9-271c0,0-4.4-12.1-3.3-24.1"/>
	<path id="leg-left_1_" class="st7" d="M489.9-269c0,0,3-9,0.3-24.1"/>
	<path id="arm-right_2_" class="st7" d="M635.7-382.3c0,0-8.8,13.3-23.8,11.3"/>
	<g id="hand-right_1_">
		<path class="st6" d="M642.3-393c-2.8,3-5.3,4.8-4,6s4.6-0.3,7.4-3.3c2.8-3,4-6.5,2.7-7.7C647.1-399.2,645.1-396.1,642.3-393z"/>
		<path class="st6" d="M641.6-393.5c-0.7,4.1-1.3,7.3-2.9,7c-1.6-0.3-1.8-4-1.1-8c0.7-4.1,1.4-7.2,3.1-7
			C642.3-401.2,642.2-397.6,641.6-393.5z"/>
		<path class="st6" d="M632.6-387.5c-1.4,3,0,6,2.4,7.7c1.6,1.3,5.2,0.3,6.6-2.7c1.4-3,1.6-6.8-1.4-8.2S634-390.5,632.6-387.5z"/>
	</g>
	<g id="body_2_">
		<path id="body_3_" class="st8" d="M414.9-467c-0.8,10.9-3,129,13,160c12,22,164,10,175,2c10-33,9-109,4-149"/>
		<path id="face_divider_1_" class="st8" d="M435.9-436c0,0-8,115,12.8,138.5"/>
		<path id="hair_1_" class="st8" d="M606.9-453.4c0.2-0.9,0.3-1.7,0.4-2.6c1.1-6.7,1.4-13.3,0.8-20c-0.1-0.5-0.1-1-0.2-1.5
			c0-0.1,0-0.2,0-0.3c-0.1-0.5-0.1-0.9-0.2-1.4c0-0.1,0-0.3-0.1-0.4c-0.1-0.5-0.2-0.9-0.2-1.4c0-0.1-0.1-0.3-0.1-0.4
			c-0.1-0.5-0.2-0.9-0.3-1.4c0-0.1-0.1-0.2-0.1-0.4c-0.1-0.5-0.2-1-0.3-1.5c0,0,0-0.1,0-0.1c-0.4-1.7-0.9-3.5-1.5-5.3c0,0,0,0,0-0.1
			c-0.2-0.5-0.3-1-0.5-1.5c-0.1-0.2-0.1-0.3-0.2-0.5c-0.2-0.5-0.3-0.9-0.5-1.4c-0.1-0.2-0.1-0.4-0.2-0.6c-0.2-0.4-0.3-0.9-0.5-1.3
			c-0.1-0.2-0.2-0.4-0.2-0.6c-0.2-0.5-0.4-0.9-0.6-1.4c-0.1-0.2-0.2-0.4-0.3-0.6c-0.2-0.5-0.4-0.9-0.6-1.4c-0.1-0.2-0.1-0.3-0.2-0.5
			c-0.8-1.8-1.8-3.6-2.8-5.4c0,0,0,0,0,0c-2.5-4.6-5.5-9.3-9.2-14.3c0,0-133,6-160,26c-9,6.7-13.7,15.6-14.5,24.5c0,0,0,0,0,0
			c-0.1,0.7-0.1,1.3-0.1,2c0,0,0,0,0,0.1c0,0.7,0,1.3,0,2c0.6,14.1,10.7,27.4,28.1,30.9c20,4,140,5,164-19
			C606.9-453.1,606.9-453.3,606.9-453.4z"/>
		<path class="st8" d="M525.9-483.7c0,0,30-9.3,59.5-9.4"/>
		<path class="st8" d="M533.9-474.7c0,0,30-9.3,59.5-9.4"/>
		<path class="st8" d="M533.4-461.7c0,0,34.5-7.3,60.5-7.3"/>
	</g>
	<path id="arm-left_1_" class="st7" d="M424.9-371c0,0-12.5-1.3-25.2-15.7"/>
	<g id="hand-left_1_">
		<path class="st6" d="M393.7-396c2.8,3,5.3,4.8,4,6s-4.6-0.3-7.4-3.3c-2.8-3-4-6.5-2.7-7.7C388.8-402.2,390.9-399.1,393.7-396z"/>
		<path class="st6" d="M398.4-397.9c0.2,4.1,0.3,7.4-1.3,7.5s-2.6-3.5-2.8-7.6c-0.2-4.1-0.2-7.4,1.5-7.5
			C397.4-405.6,398.2-402.1,398.4-397.9z"/>
		<path class="st6" d="M403.4-391.5c1.4,3,0,6-2.4,7.7c-1.6,1.3-5.2,0.3-6.6-2.7s-1.6-6.8,1.4-8.2
			C398.8-396.1,401.9-394.5,403.4-391.5z"/>
	</g>
	<path class="st9" d="M693.9-328"/>
</g>
<g id="book-line">
	<g id="face_3_">
		<circle class="st6" cx="106.4" cy="146.2" r="6.1"/>
		<circle class="st6" cx="175.7" cy="141.5" r="6.1"/>
		<path class="st6" d="M131.4,178.5c0,0,10,3,27,0c0,0,1,11-12,14S131.4,178.5,131.4,178.5z"/>
	</g>
	<path id="leg-right_3_" class="st7" d="M166.9,250c0,0-4.4-12.1-3.3-24.1"/>
	<path id="leg-left_3_" class="st7" d="M102.9,252c0,0,3-9,0.3-24.1"/>
	<path id="arm-right_4_" class="st7" d="M248.7,138.7c0,0-8.8,13.3-23.8,11.3"/>
	<g id="hand-right_3_">
		<path class="st6" d="M255.3,128c-2.8,3-5.3,4.8-4,6c1.3,1.2,4.6-0.3,7.4-3.3s4-6.5,2.7-7.7C260.1,121.8,258.1,124.9,255.3,128z"/>
		<path class="st6" d="M254.6,127.5c-0.7,4.1-1.3,7.3-2.9,7c-1.6-0.3-1.8-4-1.1-8c0.7-4.1,1.4-7.2,3.1-7
			C255.3,119.8,255.2,123.4,254.6,127.5z"/>
		<path class="st6" d="M245.6,133.5c-1.4,3,0,6,2.4,7.7c1.6,1.3,5.2,0.3,6.6-2.7c1.4-3,1.6-6.8-1.4-8.2
			C250.1,128.9,247,130.5,245.6,133.5z"/>
	</g>
	<g id="body_4_">
		<path id="body_6_" class="st8" d="M27.9,54c-0.8,10.9-3,129,13,160c12,22,164,10,175,2c10-33,9-109,4-149"/>
		<path id="face_divider_3_" class="st8" d="M48.9,85c0,0-8,115,12.8,138.5"/>
		<path id="hair_4_" class="st8" d="M219.9,67.6c0.2-0.9,0.3-1.7,0.4-2.6c1.1-6.7,1.4-13.3,0.8-20c-0.1-0.5-0.1-1-0.2-1.5
			c0-0.1,0-0.2,0-0.3c-0.1-0.5-0.1-0.9-0.2-1.4c0-0.1,0-0.3-0.1-0.4c-0.1-0.5-0.2-0.9-0.2-1.4c0-0.1-0.1-0.3-0.1-0.4
			c-0.1-0.5-0.2-0.9-0.3-1.4c0-0.1-0.1-0.2-0.1-0.4c-0.1-0.5-0.2-1-0.3-1.5c0,0,0-0.1,0-0.1c-0.4-1.7-0.9-3.5-1.5-5.3c0,0,0,0,0-0.1
			c-0.2-0.5-0.3-1-0.5-1.5c-0.1-0.2-0.1-0.3-0.2-0.5c-0.2-0.5-0.3-0.9-0.5-1.4c-0.1-0.2-0.1-0.4-0.2-0.6c-0.2-0.4-0.3-0.9-0.5-1.3
			c-0.1-0.2-0.2-0.4-0.2-0.6c-0.2-0.5-0.4-0.9-0.6-1.4c-0.1-0.2-0.2-0.4-0.3-0.6c-0.2-0.5-0.4-0.9-0.6-1.4c-0.1-0.2-0.1-0.3-0.2-0.5
			c-0.8-1.8-1.8-3.6-2.8-5.4c0,0,0,0,0,0c-2.5-4.6-5.5-9.3-9.2-14.3c0,0-133,6-160,26c-9,6.7-13.7,15.6-14.5,24.5c0,0,0,0,0,0
			c-0.1,0.7-0.1,1.3-0.1,2c0,0,0,0,0,0.1c0,0.7,0,1.3,0,2C28.3,70.2,38.4,83.5,55.9,87c20,4,140,5,164-19
			C219.9,67.9,219.9,67.7,219.9,67.6z"/>
		<path class="st8" d="M138.9,37.3c0,0,30-9.3,59.5-9.4"/>
		<path class="st8" d="M146.9,46.3c0,0,30-9.3,59.5-9.4"/>
		<path class="st8" d="M146.4,59.3c0,0,34.5-7.3,60.5-7.3"/>
	</g>
	<path id="arm-left_3_" class="st7" d="M37.9,150c0,0-12.5-1.3-25.2-15.7"/>
	<g id="hand-left_3_">
		<path class="st6" d="M6.7,125c2.8,3,5.3,4.8,4,6c-1.3,1.2-4.6-0.3-7.4-3.3s-4-6.5-2.7-7.7C1.8,118.8,3.9,121.9,6.7,125z"/>
		<path class="st6" d="M11.4,123.1c0.2,4.1,0.3,7.4-1.3,7.5s-2.6-3.5-2.8-7.6c-0.2-4.1-0.2-7.4,1.5-7.5
			C10.4,115.4,11.2,118.9,11.4,123.1z"/>
		<path class="st6" d="M16.4,129.5c1.4,3,0,6-2.4,7.7c-1.6,1.3-5.2,0.3-6.6-2.7s-1.6-6.8,1.4-8.2C11.8,124.9,14.9,126.5,16.4,129.5z
			"/>
	</g>
	<path class="st9" d="M306.9,193"/>
</g>
<g id="book_blue_copy">
	<path id="leg-right_2_" class="st7" d="M228.9-271c0,0-4.4-12.1-3.3-24.1"/>
	<path id="leg-left_2_" class="st7" d="M164.9-269c0,0,3-9,0.3-24.1"/>
	<path id="arm-right_3_" class="st7" d="M310.7-382.3c0,0-8.8,13.3-23.8,11.3"/>
	<g id="hand-right_2_">
		<path class="st6" d="M317.3-393c-2.8,3-5.3,4.8-4,6c1.3,1.2,4.6-0.3,7.4-3.3c2.8-3,4-6.5,2.7-7.7
			C322.1-399.2,320.1-396.1,317.3-393z"/>
		<path class="st6" d="M316.6-393.5c-0.7,4.1-1.3,7.3-2.9,7c-1.6-0.3-1.8-4-1.1-8s1.4-7.2,3.1-7
			C317.3-401.2,317.2-397.6,316.6-393.5z"/>
		<path class="st6" d="M307.6-387.5c-1.4,3,0,6,2.4,7.7c1.6,1.3,5.2,0.3,6.6-2.7s1.6-6.8-1.4-8.2S309-390.5,307.6-387.5z"/>
	</g>
	<path id="body_5_" class="st10" d="M89.9-467c-0.8,10.9-3,129,13,160c12,22,164,10,175,2c10-33,10-109,5-149L89.9-467z"/>
	<path id="face_divider_2_" class="st11" d="M110.9-436c0,0-7.8,112.5,13,136"/>
	<g id="hair_3_">
		<path id="hair_2_" class="st12" d="M281.9-453.4c0.2-0.9,0.3-1.7,0.4-2.6c1.1-6.7,1.4-13.3,0.8-20c-0.1-0.5-0.1-1-0.2-1.5
			c0-0.1,0-0.2,0-0.3c-0.1-0.5-0.1-0.9-0.2-1.4c0-0.1,0-0.3-0.1-0.4c-0.1-0.5-0.2-0.9-0.2-1.4c0-0.1-0.1-0.3-0.1-0.4
			c-0.1-0.5-0.2-0.9-0.3-1.4c0-0.1-0.1-0.2-0.1-0.4c-0.1-0.5-0.2-1-0.3-1.5c0,0,0-0.1,0-0.1c-0.4-1.7-0.9-3.5-1.5-5.3c0,0,0,0,0-0.1
			c-0.2-0.5-0.3-1-0.5-1.5c-0.1-0.2-0.1-0.3-0.2-0.5c-0.2-0.5-0.3-0.9-0.5-1.4c-0.1-0.2-0.1-0.4-0.2-0.6c-0.2-0.4-0.3-0.9-0.5-1.3
			c-0.1-0.2-0.2-0.4-0.2-0.6c-0.2-0.5-0.4-0.9-0.6-1.4c-0.1-0.2-0.2-0.4-0.3-0.6c-0.2-0.5-0.4-0.9-0.6-1.4c-0.1-0.2-0.1-0.3-0.2-0.5
			c-0.8-1.8-1.8-3.6-2.8-5.4c0,0,0,0,0,0c-2.5-4.6-5.5-9.3-9.2-14.3c0,0-133,6-160,26c-9,6.7-13.7,15.6-14.5,24.5c0,0,0,0,0,0
			c-0.1,0.7-0.1,1.3-0.1,2c0,0,0,0,0,0.1c0,0.7,0,1.3,0,2c0.6,14.1,10.7,27.4,28.1,30.9c20,4,140,5,164-19
			C281.9-453.1,281.9-453.3,281.9-453.4z"/>
		<path class="st8" d="M200.9-483.7c0,0,30-9.3,59.5-9.4"/>
		<path class="st8" d="M208.9-474.7c0,0,30-9.3,59.5-9.4"/>
		<path class="st8" d="M208.4-461.7c0,0,34.5-7.3,60.5-7.3"/>
	</g>
	<path id="arm-left_2_" class="st7" d="M99.9-371c0,0-12.5-1.3-25.2-15.7"/>
	<g id="hand-left_2_">
		<path class="st6" d="M68.7-396c2.8,3,5.3,4.8,4,6s-4.6-0.3-7.4-3.3c-2.8-3-4-6.5-2.7-7.7C63.8-402.2,65.9-399.1,68.7-396z"/>
		<path class="st6" d="M73.4-397.9c0.2,4.1,0.3,7.4-1.3,7.5s-2.6-3.5-2.8-7.6c-0.2-4.1-0.2-7.4,1.5-7.5
			C72.4-405.6,73.2-402.1,73.4-397.9z"/>
		<path class="st6" d="M78.4-391.5c1.4,3,0,6-2.4,7.7c-1.6,1.3-5.2,0.3-6.6-2.7s-1.6-6.8,1.4-8.2S76.9-394.5,78.4-391.5z"/>
	</g>
	<g id="face_2_">
		<circle class="st6" cx="168.4" cy="-374.8" r="6.1"/>
		<circle class="st6" cx="237.7" cy="-379.5" r="6.1"/>
		<path class="st6" d="M193.4-342.5c0,0,10,3,27,0c0,0,1,11-12,14S193.4-342.5,193.4-342.5z"/>
	</g>
	<path class="st9" d="M368.9-328"/>
</g>
</svg>
