<svg xmlns="http://www.w3.org/2000/svg" viewBox="0 0 139.8 188.7"><style type="text/css">  
	.st0{fill:none;stroke:#000000;stroke-width:3;stroke-miterlimit:10;}
</style><path class="st0" d="M126.3 187.2H13.5c-6.6 0-12-5.4-12-12V13.5c0-6.6 5.4-12 12-12h112.8c6.6 0 12 5.4 12 12v161.7C138.3 181.8 132.9 187.2 126.3 187.2z"/><path class="st0" d="M114.3 187.2H13.5c-6.6 0-12-5.4-12-12V13.5c0-6.6 5.4-12 12-12h100.8c6.6 0 12 5.4 12 12v161.7C126.3 181.8 120.9 187.2 114.3 187.2z"/><path d="M52.9 60.6h3.7L68 95.3h-4.2l-3.7-11.8H48.5l-3.7 11.8H41L52.9 60.6zM49.2 80.8h10.2l-5-15.9L49.2 80.8z"/><path d="M86.5 123.6H62.8v-3l18.9-25.1H64v-3.2h22.2v3.1l-18.8 25h19.1V123.6z"/></svg>