<?xml version="1.0" encoding="utf-8"?>
<!-- Generator: Adobe Illustrator 23.0.1, SVG Export Plug-In . SVG Version: 6.00 Build 0)  -->
<svg version="1.1" xmlns="http://www.w3.org/2000/svg" xmlns:xlink="http://www.w3.org/1999/xlink" x="0px" y="0px"
	 viewBox="0 0 1500 1500" style="enable-background:new 0 0 1500 1500;" xml:space="preserve">
<style type="text/css">
	.st0{display:none;fill:none;stroke:#000000;stroke-width:8;stroke-miterlimit:10;}
	.st1{display:none;}
	.st2{display:inline;fill:none;stroke:#000000;stroke-width:36;stroke-linecap:round;stroke-linejoin:round;stroke-miterlimit:10;}
	.st3{display:inline;fill:#03206B;}
	.st4{font-family:'Dosis-Light';}
	.st5{font-size:374.7825px;}
	.st6{display:inline;}
	.st7{fill:none;stroke:#0733B5;stroke-width:36;stroke-linecap:round;stroke-linejoin:round;stroke-miterlimit:10;}
	.st8{fill:#083199;}
</style>
<g id="Layer_1">
</g>
<g id="Layer_2">
	<text transform="matrix(1 0 0 1 1959.3373 -3453.293)" class="st1" style="font-family:'Anders'; font-size:206.5px;">SCREENTOR</text>
	<text transform="matrix(1 0 0 1 2023.3373 -3284.293)" class="st1" style="font-family:'Anders'; font-size:206.5px;">SCREENTOR</text>
</g>
<g id="Layer_2_copy">
	<text transform="matrix(1 0 0 1 3723.4316 -3453.293)" class="st1" style="font-family:'Anders'; font-size:206.5px;">SCREENTOR</text>
	<text transform="matrix(1 0 0 1 3787.4316 -3284.293)" class="st1" style="font-family:'Anders'; font-size:206.5px;">SCREENTOR</text>
</g>
<g id="Layer_2_copy_2">
	<text transform="matrix(1 0 0 1 3723.4316 -3453.293)" class="st1" style="font-family:'Anders'; font-size:206.5px;">SCREENTOR</text>
</g>
<g id="Layer_7">
	<path class="st0" d="M7657.5-3190.33v-754.9c0-70.99,56.87-128.92,127.85-130.16c187.56-3.28,475.95-58.87,472.82,265.62
		c0,0-56.68,628.99-502.36,619.55L7657.5-3190.33"/>
</g>
<g id="Layer_7_copy">
	<path class="st0" d="M9189.38-3134.7v-754.9c0-70.99,56.87-128.92,127.85-130.16c187.56-3.28,475.95-58.87,472.82,265.62
		c0,0-56.68,628.99-502.36,619.55L9189.38-3134.7"/>
</g>
<g id="Layer_4">
</g>
<g id="Layer_5">
</g>
<g id="final" class="st1">
	<path class="st2" d="M402.2,976.35V294.26c0-64.02,51.29-116.25,115.31-117.38c169.39-2.99,439.65-53.18,427.29,239.93
		c0,0,0.02,215.42-336.07,173.04c-134-16.9-129.49-188.34-7.55-195.62c102.67-6.12,106.43,73.19,72.33,92.03"/>
	<path class="st2" d="M401.91,972.74c0,0,543.9,73.85,543.59-558.66"/>
</g>
<g id="final_copy" class="st1">
	<text transform="matrix(1 0 0 1 65.4681 1395.995)" class="st3 st4 st5">PrettyDict</text>
	<g class="st6">
		<path class="st7" d="M427.43,988.48c0,0,645.51,82.9,645.14-667.77"/>
		<path class="st7" d="M427.78,988.02V178.51c0-75.98,60.87-137.97,136.85-139.31c201.04-3.55,521.79-63.11,507.11,284.76
			c0,0,0.03,255.66-398.85,205.37c-159.03-20.05-153.68-223.53-8.96-232.16c121.85-7.27,126.31,86.87,85.84,109.22"/>
	</g>
</g>
<g id="final_copy_2">
	<g>
		<path class="st8" d="M95.08,1129.9c0-4.74,2.87-7.37,8.62-7.87h67.46c10.49,0,20.36,1.44,29.61,4.31
			c9.24,2.88,17.24,7.37,23.99,13.49c6.75,6.13,12.05,14.18,15.93,24.17c3.87,10,5.81,22.11,5.81,36.35v4.12
			c0,14.24-1.94,26.36-5.81,36.35c-3.88,10-9.25,18.12-16.12,24.36c-6.88,6.25-14.93,10.81-24.17,13.68
			c-9.25,2.88-19.11,4.31-29.61,4.31h-56.97v104.56c0,2.75-0.94,4.81-2.81,6.18c-1.87,1.38-4.06,2.06-6.56,2.06
			c-2.25,0-4.37-0.69-6.37-2.06c-2-1.37-3-3.43-3-6.18V1129.9z M113.82,1140.02v125.93h56.97c17.99,0,31.98-4.93,41.98-14.8
			c9.99-9.87,14.99-25.3,14.99-46.29v-4.12c0-20.99-5-36.35-14.99-46.1c-10-9.74-23.99-14.62-41.98-14.62H113.82z"/>
		<path class="st8" d="M350.31,1234.09c-6.5,0-12.74,1.25-18.74,3.75c-6,2.5-11.37,6.12-16.12,10.87
			c-4.75,4.75-8.56,10.49-11.43,17.24c-2.88,6.75-4.31,14.37-4.31,22.86v98.94c0,2-0.88,3.88-2.62,5.62c-1.75,1.75-4,2.62-6.75,2.62
			c-2.75,0-4.94-0.87-6.56-2.62c-1.63-1.75-2.44-3.62-2.44-5.62v-161.16c0-2.25,0.81-4.06,2.44-5.43c1.62-1.37,3.81-2.06,6.56-2.06
			c2.49,0,4.62,0.69,6.37,2.06c1.75,1.38,2.62,3.19,2.62,5.43v19.11c4.25-7.24,10.62-13.87,19.11-19.86c8.49-6,19.11-9,31.86-9
			h13.49c2.25,0,4.18,0.81,5.81,2.44c1.62,1.63,2.44,3.69,2.44,6.18c0,2.5-0.81,4.56-2.44,6.18c-1.63,1.63-3.56,2.44-5.81,2.44
			H350.31z"/>
		<path class="st8" d="M454.87,1216.85c8.99,0,17.61,1.69,25.86,5.06s15.49,8.06,21.74,14.05c6.24,6,11.24,13.18,14.99,21.55
			c3.75,8.37,5.62,17.43,5.62,27.17c0,7-0.88,12.43-2.62,16.3c-1.75,3.88-4.12,6.75-7.12,8.62c-3,1.87-6.44,3-10.31,3.37
			c-3.88,0.38-7.81,0.56-11.81,0.56h-86.95v15.74c0,8,1.5,15.24,4.5,21.74c3,6.5,7.18,11.99,12.56,16.49
			c5.37,4.5,11.74,7.93,19.11,10.31c7.37,2.38,15.42,3.56,24.17,3.56c7.74,0,14.05-0.75,18.93-2.25c4.87-1.5,8.87-3.19,11.99-5.06
			c3.12-1.87,5.68-3.62,7.68-5.25c2-1.62,3.99-2.44,6-2.44c2.25,0,4.25,1,6,3c1.75,2,2.62,4,2.62,6c0,2-1.25,4.31-3.75,6.93
			c-2.5,2.62-6.06,5.12-10.68,7.5c-4.63,2.38-10.31,4.37-17.05,6s-14.24,2.44-22.49,2.44c-11.5,0-21.99-1.69-31.48-5.06
			c-9.5-3.37-17.68-8.06-24.55-14.05c-6.88-6-12.25-13.24-16.12-21.74c-3.88-8.49-5.81-17.99-5.81-28.48v-44.6
			c0-9.24,1.81-17.92,5.43-26.05c3.62-8.12,8.56-15.24,14.8-21.36c6.24-6.12,13.55-10.99,21.92-14.62
			C436.44,1218.66,445.37,1216.85,454.87,1216.85z M484.1,1298.18c8.49,0,14.11-0.81,16.87-2.44c2.75-1.62,4.12-5.31,4.12-11.06
			c0-6.24-1.19-12.49-3.56-18.74c-2.38-6.24-5.81-11.74-10.31-16.49c-4.5-4.74-9.81-8.62-15.93-11.62c-6.12-3-12.93-4.5-20.43-4.5
			c-7.25,0-13.93,1.31-20.05,3.93c-6.12,2.62-11.43,6.18-15.93,10.68c-4.5,4.5-8.06,9.74-10.68,15.74c-2.62,6-3.94,12.37-3.94,19.11
			v15.37H484.1z"/>
		<path class="st8" d="M579.29,1342.4c0,13.49,2.87,22.93,8.62,28.3c5.75,5.38,15.74,8.06,29.98,8.06h9.37
			c2.75,0,4.87,0.81,6.37,2.44c1.5,1.63,2.25,3.69,2.25,6.18c0,2.25-0.75,4.25-2.25,6c-1.5,1.75-3.62,2.62-6.37,2.62h-9.37
			c-18.74,0-32.92-4.25-42.54-12.74c-9.62-8.49-14.43-22.11-14.43-40.85v-201.26c0-2.25,1-4.12,3-5.62c2-1.5,3.99-2.25,6-2.25
			c2.49,0,4.68,0.75,6.56,2.25s2.81,3.37,2.81,5.62v77.96h49.85c2,0,3.68,0.81,5.06,2.44c1.37,1.63,2.06,3.56,2.06,5.81
			c0,2-0.69,3.81-2.06,5.43c-1.38,1.63-3.06,2.44-5.06,2.44h-49.85V1342.4z"/>
		<path class="st8" d="M685.73,1342.4c0,13.49,2.87,22.93,8.62,28.3c5.75,5.38,15.74,8.06,29.98,8.06h9.37
			c2.75,0,4.87,0.81,6.37,2.44c1.5,1.63,2.25,3.69,2.25,6.18c0,2.25-0.75,4.25-2.25,6c-1.5,1.75-3.62,2.62-6.37,2.62h-9.37
			c-18.74,0-32.92-4.25-42.54-12.74c-9.62-8.49-14.43-22.11-14.43-40.85v-201.26c0-2.25,1-4.12,3-5.62c2-1.5,3.99-2.25,6-2.25
			c2.49,0,4.68,0.75,6.56,2.25s2.81,3.37,2.81,5.62v77.96h49.85c2,0,3.68,0.81,5.06,2.44c1.37,1.63,2.06,3.56,2.06,5.81
			c0,2-0.69,3.81-2.06,5.43c-1.38,1.63-3.06,2.44-5.06,2.44h-49.85V1342.4z"/>
		<path class="st8" d="M756.94,1228.47c-0.5-1.5-0.75-2.5-0.75-3c0-2.49,1.12-4.62,3.37-6.37c2.25-1.75,4.74-2.62,7.5-2.62
			c1.5,0,2.93,0.44,4.31,1.31c1.37,0.88,2.31,2.06,2.81,3.56l52.84,144.29l51.35-144.29c1.5-3.24,3.87-4.87,7.12-4.87
			c2.25,0,4.56,0.81,6.93,2.44c2.37,1.63,3.56,3.81,3.56,6.56c0,1.25-0.13,2.25-0.37,3L836.39,1390
			c-3.5,9.74-7.44,20.11-11.81,31.11c-4.37,10.99-9.37,21.17-14.99,30.54c-5.62,9.37-12.12,17.11-19.49,23.24
			c-7.37,6.12-15.68,9.18-24.92,9.18c-2.25,0-4.25-0.69-6-2.06c-1.75-1.38-2.62-3.56-2.62-6.56c0-2.25,0.5-4.25,1.5-6
			c1-1.75,2.75-2.62,5.25-2.62c6.24,0,12.05-2.25,17.43-6.75c5.37-4.5,10.31-10.44,14.8-17.8c4.5-7.37,8.62-15.62,12.37-24.74
			c3.75-9.12,6.99-18.31,9.74-27.55L756.94,1228.47z"/>
		<path class="st8" d="M1007.66,1122.03c10.49,0,20.36,1.44,29.61,4.31c9.24,2.88,17.3,7.44,24.17,13.68
			c6.87,6.25,12.24,14.37,16.12,24.36c3.87,10,5.81,22.11,5.81,36.35v116.56c0,14.24-1.94,26.36-5.81,36.35
			c-3.88,10-9.25,18.12-16.12,24.36c-6.87,6.25-14.93,10.81-24.17,13.68c-9.25,2.88-19.11,4.31-29.61,4.31h-66.34
			c-2.75,0-4.94-0.81-6.56-2.44c-1.63-1.62-2.44-3.43-2.44-5.43V1129.9c0-2,0.81-3.81,2.44-5.43c1.62-1.62,3.81-2.44,6.56-2.44
			H1007.66z M951.07,1140.02v237.99h56.59c17.99,0,31.98-4.87,41.98-14.62c9.99-9.74,14.99-25.11,14.99-46.1v-116.56
			c0-20.99-5-36.35-14.99-46.1c-10-9.74-23.99-14.62-41.98-14.62H951.07z"/>
		<path class="st8" d="M1141.83,1136.27c3.75,0,6.99,1.31,9.74,3.94c2.75,2.62,4.12,5.69,4.12,9.18c0,3.75-1.38,7-4.12,9.74
			c-2.75,2.75-6,4.12-9.74,4.12c-4.25,0-7.68-1.37-10.31-4.12c-2.62-2.75-3.94-6-3.94-9.74c0-3.5,1.31-6.56,3.94-9.18
			S1137.58,1136.27,1141.83,1136.27z M1141.83,1219.1c2.75,0,5,0.69,6.75,2.06c1.75,1.38,2.62,3.19,2.62,5.43v161.16
			c0,2-0.88,3.88-2.62,5.62c-1.75,1.75-4,2.62-6.75,2.62c-2.75,0-4.94-0.87-6.56-2.62c-1.63-1.75-2.44-3.62-2.44-5.62v-161.16
			c0-2.25,0.81-4.06,2.44-5.43C1136.89,1219.79,1139.08,1219.1,1141.83,1219.1z"/>
		<path class="st8" d="M1264.76,1398.24c-11.99,0-22.43-1.75-31.29-5.25c-8.87-3.5-16.18-8.3-21.92-14.43
			c-5.75-6.12-10.06-13.43-12.93-21.92c-2.88-8.49-4.31-17.74-4.31-27.73v-42.73c0-9.74,1.37-18.86,4.12-27.36
			c2.75-8.49,7.06-15.8,12.93-21.92c5.87-6.12,13.24-10.99,22.11-14.62c8.87-3.62,19.3-5.43,31.29-5.43
			c7.74,0,14.74,0.81,20.99,2.44c6.24,1.63,11.55,3.56,15.93,5.81c4.37,2.25,7.74,4.68,10.12,7.31c2.37,2.62,3.56,5.06,3.56,7.31
			s-0.81,4.31-2.44,6.18c-1.63,1.87-3.69,2.81-6.18,2.81c-1.5,0-3.19-0.75-5.06-2.25c-1.87-1.5-4.31-3.19-7.31-5.06
			c-3-1.87-6.88-3.56-11.62-5.06c-4.75-1.5-10.62-2.25-17.61-2.25c-17.24,0-30.3,4.63-39.16,13.87
			c-8.87,9.25-13.31,21.99-13.31,38.23v42.73c0,16.24,4.43,28.99,13.31,38.23c8.87,9.25,22.05,13.87,39.54,13.87
			c7.5,0,13.68-0.75,18.55-2.25c4.87-1.5,8.87-3.19,11.99-5.06c3.12-1.87,5.68-3.62,7.68-5.25c2-1.62,3.87-2.44,5.62-2.44
			c2.25,0,4.18,1,5.81,3c1.62,2,2.44,4,2.44,6c0,2.25-1.25,4.75-3.75,7.5c-2.5,2.75-6,5.25-10.49,7.5c-4.5,2.25-10,4.19-16.49,5.81
			C1280.37,1397.43,1273.01,1398.24,1264.76,1398.24z"/>
		<path class="st8" d="M1370.44,1342.4c0,13.49,2.87,22.93,8.62,28.3c5.75,5.38,15.74,8.06,29.98,8.06h9.37
			c2.75,0,4.87,0.81,6.37,2.44c1.5,1.63,2.25,3.69,2.25,6.18c0,2.25-0.75,4.25-2.25,6c-1.5,1.75-3.62,2.62-6.37,2.62h-9.37
			c-18.74,0-32.92-4.25-42.54-12.74c-9.62-8.49-14.43-22.11-14.43-40.85v-201.26c0-2.25,1-4.12,3-5.62c2-1.5,3.99-2.25,6-2.25
			c2.49,0,4.68,0.75,6.56,2.25s2.81,3.37,2.81,5.62v77.96h49.85c2,0,3.68,0.81,5.06,2.44c1.37,1.63,2.06,3.56,2.06,5.81
			c0,2-0.69,3.81-2.06,5.43c-1.38,1.63-3.06,2.44-5.06,2.44h-49.85V1342.4z"/>
	</g>
	<g>
		<path class="st7" d="M505.91,1033.08c0,0,650.53-19.11,532.73-760.47"/>
		<path class="st7" d="M506.18,1032.57L379.55,233.02c-11.89-75.05,38.54-145.79,113.37-159
			C690.92,39.06,998.4-69.94,1038.32,275.94c0,0,40.02,252.51-361.81,265.23c-160.21,5.07-186.75-196.74-45.16-227.9
			c119.21-26.24,138.34,66.04,101.87,94.45"/>
	</g>
</g>
</svg>
