<?xml version="1.0" encoding="utf-8"?>
<!-- Generator: Adobe Illustrator 23.0.1, SVG Export Plug-In . SVG Version: 6.00 Build 0)  -->
<svg version="1.1" id="final_copy_2" xmlns="http://www.w3.org/2000/svg" xmlns:xlink="http://www.w3.org/1999/xlink" x="0px"
	 y="0px" viewBox="0 0 2124.87 702.6" style="enable-background:new 0 0 2124.87 702.6;" xml:space="preserve">
<style type="text/css">
	.st0{fill:#F2F2F2;}
	.st1{fill:none;stroke:#F2F2F2;stroke-width:36;stroke-linecap:round;stroke-linejoin:round;stroke-miterlimit:10;}
</style>
<g>
	<path class="st0" d="M649.05,292.27c0-5.25,3.18-8.16,9.55-8.72h74.72c11.62,0,22.55,1.6,32.8,4.77
		c10.23,3.19,19.1,8.16,26.57,14.94c7.48,6.79,13.35,15.71,17.65,26.77c4.29,11.08,6.44,24.49,6.44,40.26v4.56
		c0,15.77-2.15,29.2-6.44,40.26c-4.3,11.08-10.25,20.07-17.86,26.98c-7.62,6.92-16.54,11.97-26.77,15.15
		c-10.25,3.19-21.17,4.77-32.8,4.77H669.8v115.82c0,3.05-1.04,5.33-3.11,6.85c-2.07,1.53-4.5,2.28-7.27,2.28
		c-2.49,0-4.84-0.76-7.06-2.28s-3.32-3.8-3.32-6.85L649.05,292.27L649.05,292.27z M669.8,303.48v139.49h63.11
		c19.93,0,35.42-5.46,46.5-16.39c11.07-10.93,16.6-28.02,16.6-51.27v-4.56c0-23.25-5.54-40.26-16.6-51.06
		c-11.08-10.79-26.57-16.19-46.5-16.19L669.8,303.48L669.8,303.48z"/>
	<path class="st0" d="M931.76,407.68c-7.2,0-14.11,1.38-20.76,4.15c-6.65,2.77-12.59,6.78-17.86,12.04
		c-5.26,5.26-9.48,11.62-12.66,19.1c-3.19,7.48-4.77,15.92-4.77,25.32v109.59c0,2.22-0.97,4.3-2.9,6.23
		c-1.94,1.94-4.43,2.9-7.48,2.9s-5.47-0.96-7.27-2.9c-1.81-1.94-2.7-4.01-2.7-6.23v-178.5c0-2.49,0.9-4.5,2.7-6.01
		c1.79-1.52,4.22-2.28,7.27-2.28c2.76,0,5.12,0.76,7.06,2.28c1.94,1.53,2.9,3.53,2.9,6.01v21.17c4.71-8.02,11.76-15.36,21.17-22
		c9.4-6.65,21.17-9.97,35.29-9.97h14.94c2.49,0,4.63,0.9,6.44,2.7c1.79,1.81,2.7,4.09,2.7,6.85c0,2.77-0.9,5.05-2.7,6.85
		c-1.81,1.81-3.94,2.7-6.44,2.7H931.76z"/>
	<path class="st0" d="M1047.58,388.59c9.96,0,19.51,1.87,28.64,5.6s17.16,8.93,24.08,15.56c6.91,6.65,12.45,14.6,16.6,23.87
		c4.15,9.27,6.23,19.31,6.23,30.1c0,7.75-0.97,13.77-2.9,18.06c-1.94,4.3-4.56,7.48-7.89,9.55c-3.32,2.07-7.13,3.32-11.42,3.73
		c-4.3,0.42-8.65,0.62-13.08,0.62h-96.31v17.43c0,8.86,1.66,16.88,4.98,24.08c3.32,7.2,7.95,13.28,13.91,18.27
		c5.95,4.98,13,8.78,21.17,11.42c8.16,2.64,17.08,3.94,26.77,3.94c8.57,0,15.56-0.83,20.97-2.49c5.39-1.66,9.83-3.53,13.28-5.6
		c3.46-2.07,6.29-4.01,8.51-5.82c2.22-1.79,4.42-2.7,6.65-2.7c2.49,0,4.71,1.11,6.65,3.32s2.9,4.43,2.9,6.65
		c0,2.22-1.38,4.77-4.15,7.68c-2.77,2.9-6.71,5.67-11.83,8.31c-5.13,2.64-11.42,4.84-18.89,6.65c-7.47,1.81-15.77,2.7-24.91,2.7
		c-12.74,0-24.36-1.87-34.87-5.6c-10.52-3.73-19.58-8.93-27.19-15.56c-7.62-6.65-13.57-14.67-17.86-24.08
		c-4.3-9.4-6.44-19.93-6.44-31.55v-49.4c0-10.24,2.01-19.85,6.01-28.86c4.01-8.99,9.48-16.88,16.39-23.66s15.01-12.17,24.28-16.19
		C1027.18,390.6,1037.07,388.59,1047.58,388.59z M1079.97,478.68c9.4,0,15.63-0.9,18.69-2.7c3.05-1.79,4.56-5.88,4.56-12.25
		c0-6.91-1.32-13.84-3.94-20.76c-2.64-6.91-6.44-13-11.42-18.27c-4.98-5.25-10.87-9.55-17.65-12.87
		c-6.78-3.32-14.32-4.98-22.63-4.98c-8.03,0-15.43,1.45-22.21,4.35c-6.78,2.9-12.66,6.85-17.65,11.83
		c-4.98,4.98-8.93,10.79-11.83,17.44c-2.9,6.65-4.36,13.7-4.36,21.17v17.03h88.44V478.68z"/>
	<path class="st0" d="M1185.41,527.67c0,14.94,3.18,25.4,9.55,31.35c6.37,5.96,17.44,8.93,33.21,8.93h10.38
		c3.05,0,5.39,0.9,7.06,2.7s2.49,4.09,2.49,6.85c0,2.49-0.83,4.71-2.49,6.65c-1.66,1.94-4.01,2.9-7.06,2.9h-10.38
		c-20.76,0-36.47-4.71-47.12-14.11c-10.66-9.4-15.98-24.49-15.98-45.25V304.74c0-2.49,1.11-4.56,3.32-6.23s4.42-2.49,6.65-2.49
		c2.76,0,5.18,0.83,7.27,2.49c2.08,1.66,3.11,3.73,3.11,6.23v86.36h55.22c2.22,0,4.08,0.9,5.6,2.7c1.52,1.81,2.28,3.94,2.28,6.44
		c0,2.22-0.76,4.22-2.28,6.01c-1.53,1.81-3.39,2.7-5.6,2.7h-55.22V527.67z"/>
	<path class="st0" d="M1303.31,527.67c0,14.94,3.18,25.4,9.55,31.35c6.37,5.96,17.43,8.93,33.21,8.93h10.38
		c3.05,0,5.39,0.9,7.06,2.7c1.66,1.81,2.49,4.09,2.49,6.85c0,2.49-0.83,4.71-2.49,6.65c-1.66,1.94-4.01,2.9-7.06,2.9h-10.38
		c-20.76,0-36.47-4.71-47.12-14.11c-10.66-9.4-15.98-24.49-15.98-45.25V304.74c0-2.49,1.11-4.56,3.32-6.23
		c2.22-1.66,4.42-2.49,6.65-2.49c2.76,0,5.18,0.83,7.27,2.49c2.08,1.66,3.11,3.73,3.11,6.23v86.36h55.22c2.22,0,4.08,0.9,5.6,2.7
		c1.52,1.81,2.28,3.94,2.28,6.44c0,2.22-0.76,4.22-2.28,6.01c-1.53,1.81-3.39,2.7-5.6,2.7h-55.22V527.67z"/>
	<path class="st0" d="M1382.18,401.46c-0.55-1.66-0.83-2.77-0.83-3.32c0-2.76,1.24-5.12,3.73-7.06c2.49-1.94,5.25-2.9,8.31-2.9
		c1.66,0,3.25,0.49,4.77,1.45c1.52,0.97,2.56,2.28,3.11,3.94l58.53,159.83l56.88-159.83c1.66-3.59,4.29-5.39,7.89-5.39
		c2.49,0,5.05,0.9,7.68,2.7s3.94,4.22,3.94,7.27c0,1.38-0.14,2.49-0.41,3.32l-65.6,178.93c-3.88,10.79-8.24,22.28-13.08,34.46
		c-4.84,12.17-10.38,23.45-16.6,33.83c-6.23,10.38-13.43,18.95-21.59,25.74c-8.16,6.78-17.37,10.17-27.6,10.17
		c-2.49,0-4.71-0.76-6.65-2.28c-1.94-1.53-2.9-3.94-2.9-7.27c0-2.49,0.55-4.71,1.66-6.65c1.11-1.94,3.05-2.9,5.82-2.9
		c6.91,0,13.35-2.49,19.31-7.48c5.95-4.98,11.42-11.56,16.39-19.72c4.98-8.16,9.55-17.3,13.7-27.4c4.15-10.1,7.74-20.28,10.79-30.52
		L1382.18,401.46z"/>
	<path class="st0" d="M1659.91,283.56c11.62,0,22.55,1.6,32.8,4.77c10.24,3.19,19.16,8.24,26.77,15.15
		c7.61,6.92,13.56,15.92,17.86,26.98c4.29,11.08,6.44,24.49,6.44,40.26v129.11c0,15.77-2.15,29.2-6.44,40.26
		c-4.3,11.08-10.25,20.07-17.86,26.98c-7.61,6.92-16.54,11.97-26.77,15.15c-10.25,3.19-21.17,4.77-32.8,4.77h-73.48
		c-3.05,0-5.47-0.9-7.27-2.7c-1.81-1.79-2.7-3.8-2.7-6.01V292.27c0-2.22,0.9-4.22,2.7-6.01c1.79-1.79,4.22-2.7,7.27-2.7H1659.91z
		 M1597.23,303.48V567.1h62.68c19.93,0,35.42-5.39,46.5-16.19c11.07-10.79,16.6-27.81,16.6-51.06v-129.1
		c0-23.25-5.54-40.26-16.6-51.06c-11.08-10.79-26.57-16.19-46.5-16.19H1597.23z"/>
	<path class="st0" d="M1808.53,299.33c4.15,0,7.74,1.45,10.79,4.36c3.05,2.9,4.56,6.3,4.56,10.17c0,4.15-1.53,7.75-4.56,10.79
		c-3.05,3.05-6.65,4.56-10.79,4.56c-4.71,0-8.51-1.52-11.42-4.56c-2.9-3.05-4.36-6.65-4.36-10.79c0-3.88,1.45-7.27,4.36-10.17
		C1800.02,300.79,1803.81,299.33,1808.53,299.33z M1808.53,391.08c3.05,0,5.54,0.76,7.48,2.28c1.94,1.53,2.9,3.53,2.9,6.01v178.52
		c0,2.22-0.97,4.3-2.9,6.23c-1.94,1.94-4.43,2.9-7.48,2.9s-5.47-0.96-7.27-2.9c-1.81-1.94-2.7-4.01-2.7-6.23v-178.5
		c0-2.49,0.9-4.5,2.7-6.01C1803.06,391.84,1805.47,391.08,1808.53,391.08z"/>
	<path class="st0" d="M1944.69,589.52c-13.28,0-24.85-1.94-34.66-5.82c-9.83-3.88-17.92-9.19-24.28-15.98
		c-6.37-6.78-11.14-14.88-14.32-24.28c-3.19-9.4-4.77-19.65-4.77-30.72V465.4c0-10.79,1.52-20.89,4.56-30.31
		c3.05-9.4,7.82-17.5,14.32-24.28c6.5-6.78,14.67-12.17,24.49-16.19c9.83-4.01,21.38-6.01,34.66-6.01c8.57,0,16.33,0.9,23.25,2.7
		c6.91,1.81,12.79,3.94,17.65,6.44c4.84,2.49,8.57,5.18,11.21,8.1c2.63,2.9,3.94,5.6,3.94,8.1s-0.9,4.77-2.7,6.85
		c-1.81,2.07-4.09,3.11-6.85,3.11c-1.66,0-3.53-0.83-5.6-2.49c-2.07-1.66-4.77-3.53-8.1-5.6c-3.32-2.07-7.62-3.94-12.87-5.6
		c-5.26-1.66-11.76-2.49-19.51-2.49c-19.1,0-33.56,5.13-43.38,15.36c-9.83,10.25-14.74,24.36-14.74,42.35v47.33
		c0,17.99,4.91,32.11,14.74,42.35c9.83,10.25,24.42,15.36,43.8,15.36c8.31,0,15.15-0.83,20.55-2.49c5.39-1.66,9.83-3.53,13.28-5.6
		c3.46-2.07,6.29-4.01,8.51-5.82c2.22-1.79,4.29-2.7,6.23-2.7c2.49,0,4.63,1.11,6.44,3.32c1.79,2.22,2.7,4.43,2.7,6.65
		c0,2.49-1.38,5.26-4.15,8.31c-2.77,3.05-6.65,5.82-11.62,8.31c-4.98,2.49-11.08,4.64-18.27,6.44
		C1961.99,588.61,1953.83,589.52,1944.69,589.52z"/>
	<path class="st0" d="M2061.76,527.67c0,14.94,3.18,25.4,9.55,31.35c6.37,5.96,17.44,8.93,33.21,8.93h10.38
		c3.05,0,5.39,0.9,7.06,2.7c1.66,1.81,2.49,4.09,2.49,6.85c0,2.49-0.83,4.71-2.49,6.65c-1.66,1.94-4.01,2.9-7.06,2.9h-10.38
		c-20.76,0-36.47-4.71-47.12-14.11c-10.66-9.4-15.98-24.49-15.98-45.25V304.74c0-2.49,1.11-4.56,3.32-6.23
		c2.22-1.66,4.42-2.49,6.65-2.49c2.76,0,5.18,0.83,7.27,2.49c2.08,1.66,3.11,3.73,3.11,6.23v86.36h55.22c2.22,0,4.08,0.9,5.6,2.7
		c1.52,1.81,2.28,3.94,2.28,6.44c0,2.22-0.76,4.22-2.28,6.01c-1.53,1.81-3.39,2.7-5.6,2.7h-55.22L2061.76,527.67L2061.76,527.67z"/>
</g>
<g>
	<path class="st1" d="M110.37,684.6c0,0,469.08-12.7,384.14-505.32"/>
	<path class="st1" d="M110.56,684.26L19.25,152.97c-8.57-49.87,27.78-96.88,81.74-105.65c142.78-23.23,364.5-95.66,393.28,134.17
		c0,0,28.86,167.79-260.89,176.24C117.86,361.1,98.72,227,200.82,206.29c85.96-17.44,106.76,16.58,99.75,43.88"/>
</g>
</svg>
